<svg xmlns="http://www.w3.org/2000/svg" width="117" height="20" viewBox="0 0 117 20"><path fill="#FFAB00" d="M11.589443,0.695241306 L14.145252,5.86701719 L19.8638923,6.69864087 C20.8900451,6.84692005 21.300973,8.10837907 20.5572383,8.83102134 L16.4205998,12.8192257 L17.399096,18.5027094 C17.5751862,19.5304238 16.4916913,20.2956445 15.5831159,19.8190907 L10.4683698,17.1714857 L5.35518775,19.8550268 C4.44504899,20.3315806 3.3630382,19.5659702 3.53881605,18.5386468 L4.51731286,12.855163 L0.379502586,8.83180334 C-0.363842358,8.10916107 0.0468531162,6.84785702 1.07284914,6.69942287 L6.79148825,5.867798 L9.34729789,0.696023304 C9.80822719,-0.237670159 11.1324201,-0.226068935 11.589443,0.695241306 Z M35.589443,0.695241306 L38.145252,5.86701719 L43.8638923,6.69864087 C44.8900451,6.84692005 45.300973,8.10837907 44.5572383,8.83102134 L40.4205998,12.8192257 L41.399096,18.5027094 C41.5751862,19.5304238 40.4916913,20.2956445 39.5831159,19.8190907 L34.4683698,17.1714857 L29.3551878,19.8550268 C28.445049,20.3315806 27.3630382,19.5659702 27.5388161,18.5386468 L28.5173129,12.855163 L24.3795026,8.83180334 C23.6361576,8.10916107 24.0468531,6.84785702 25.0728491,6.69942287 L30.7914883,5.867798 L33.3472979,0.696023304 C33.8082272,-0.237670159 35.1324201,-0.226068935 35.589443,0.695241306 Z M59.589443,0.695241306 L62.145252,5.86701719 L67.8638923,6.69864087 C68.8900451,6.84692005 69.300973,8.10837907 68.5572383,8.83102134 L64.4205998,12.8192257 L65.399096,18.5027094 C65.5751862,19.5304238 64.4916913,20.2956445 63.5831159,19.8190907 L58.4683698,17.1714857 L53.3551878,19.8550268 C52.445049,20.3315806 51.3630382,19.5659702 51.5388161,18.5386468 L52.5173129,12.855163 L48.3795026,8.83180334 C47.6361576,8.10916107 48.0468531,6.84785702 49.0728491,6.69942287 L54.7914883,5.867798 L57.3472979,0.696023304 C57.8082272,-0.237670159 59.1324201,-0.226068935 59.589443,0.695241306 Z M83.589443,0.695241306 L86.145252,5.86701719 L91.8638923,6.69864087 C92.8900451,6.84692005 93.300973,8.10837907 92.5572383,8.83102134 L88.4205998,12.8192257 L89.399096,18.5027094 C89.5751862,19.5304238 88.4916913,20.2956445 87.5831159,19.8190907 L82.4683698,17.1714857 L77.3551878,19.8550268 C76.445049,20.3315806 75.3630382,19.5659702 75.5388161,18.5386468 L76.5173129,12.855163 L72.3795026,8.83180334 C71.6361576,8.10916107 72.0468531,6.84785702 73.0728491,6.69942287 L78.7914883,5.867798 L81.3472979,0.696023304 C81.8082272,-0.237670159 83.1324201,-0.226068935 83.589443,0.695241306 Z M107.589443,0.695241306 L110.145252,5.86701719 L115.863892,6.69864087 C116.890045,6.84692005 117.300973,8.10837907 116.557238,8.83102134 L112.4206,12.8192257 L113.399096,18.5027094 C113.575186,19.5304238 112.491691,20.2956445 111.583116,19.8190907 L106.46837,17.1714857 L101.355188,19.8550268 C100.445049,20.3315806 99.3630382,19.5659702 99.5388161,18.5386468 L100.517313,12.855163 L96.3795026,8.83180334 C95.6361576,8.10916107 96.0468531,6.84785702 97.0728491,6.69942287 L102.791488,5.867798 L105.347298,0.696023304 C105.808227,-0.237670159 107.13242,-0.226068935 107.589443,0.695241306 Z"/></svg>